HIERARCHY
ROOT hip
{
  OFFSET 0 0 0
  CHANNELS 6 Xposition Yposition Zposition Zrotation Yrotation Xrotation
  JOINT abdomen
  {
    OFFSET 0 20.6881 -0.73152
    CHANNELS 3 Zrotation Xrotation Yrotation
    JOINT chest
    {
      OFFSET 0 11.7043 -0.48768
      CHANNELS 3 Zrotation Xrotation Yrotation
      JOINT neck
      {
        OFFSET 0 22.1894 -2.19456
        CHANNELS 3 Zrotation Xrotation Yrotation
        JOINT head
        {
          OFFSET -0.24384 7.07133 1.2192
          CHANNELS 3 Zrotation Xrotation Yrotation
          JOINT leftEye
          {
            OFFSET 4.14528 8.04674 8.04672
            CHANNELS 3 Zrotation Xrotation Yrotation
            End Site
            {
              OFFSET 1 0 0
            }
          }
          JOINT rightEye
          {
            OFFSET -3.6576 8.04674 8.04672
            CHANNELS 3 Zrotation Xrotation Yrotation
            End Site
            {
              OFFSET 1 0 0
            }
          }
        }
      }
      JOINT rCollar
      {
        OFFSET -2.68224 19.2634 -4.8768
        CHANNELS 3 Zrotation Xrotation Yrotation
        JOINT rShldr
        {
          OFFSET -8.77824 -1.95073 1.46304
          CHANNELS 3 Zrotation Xrotation Yrotation
          JOINT rForeArm
          {
            OFFSET -28.1742 -1.7115 0.48768
            CHANNELS 3 Zrotation Xrotation Yrotation
            JOINT rHand
            {
              OFFSET -22.5879 0.773209 7.07136
              CHANNELS 3 Zrotation Xrotation Yrotation
              JOINT rThumb1
              {
                OFFSET -1.2192 -0.487915 3.41376
                CHANNELS 3 Zrotation Xrotation Yrotation
                JOINT rThumb2
                {
                  OFFSET -3.37035 -0.52449 3.41376
                  CHANNELS 3 Zrotation Xrotation Yrotation
                  End Site
                  {
                    OFFSET -1.78271 -1.18214 1.43049
                  }
                }
              }
              JOINT rIndex1
              {
                OFFSET -7.75947 0.938293 5.60832
                CHANNELS 3 Zrotation Xrotation Yrotation
                JOINT rIndex2
                {
                  OFFSET -2.54057 -0.884171 1.56538
                  CHANNELS 3 Zrotation Xrotation Yrotation
                  End Site
                  {
                    OFFSET -1.62519 -0.234802 1.16502
                  }
                }
              }
              JOINT rMid1
              {
                OFFSET -8.24714 1.18213 3.41376
                CHANNELS 3 Zrotation Xrotation Yrotation
                JOINT rMid2
                {
                  OFFSET -3.10165 -0.590103 1.0647
                  CHANNELS 3 Zrotation Xrotation Yrotation
                  End Site
                  {
                    OFFSET -2.48547 -0.328903 0.83742
                  }
                }
              }
              JOINT rRing1
              {
                OFFSET -8.82822 0.546677 1.51678
                CHANNELS 3 Zrotation Xrotation Yrotation
                JOINT rRing2
                {
                  OFFSET -2.60934 -0.819778 -0.0198488
                  CHANNELS 3 Zrotation Xrotation Yrotation
                  End Site
                  {
                    OFFSET -2.33842 -0.294052 0.168128
                  }
                }
              }
              JOINT rPinky1
              {
                OFFSET -8.27202 -0.0477905 -0.4584
                CHANNELS 3 Zrotation Xrotation Yrotation
                JOINT rPinky2
                {
                  OFFSET -1.82734 -0.647385 -0.700984
                  CHANNELS 3 Zrotation Xrotation Yrotation
                  End Site
                  {
                    OFFSET -1.69225 -0.51767 -0.607171
                  }
                }
              }
            }
          }
        }
      }
      JOINT lCollar
      {
        OFFSET 2.68224 19.2634 -4.8768
        CHANNELS 3 Zrotation Xrotation Yrotation
        JOINT lShldr
        {
          OFFSET 8.77824 -1.95073 1.46304
          CHANNELS 3 Zrotation Xrotation Yrotation
          JOINT lForeArm
          {
            OFFSET 28.1742 -1.7115 0.48768
            CHANNELS 3 Zrotation Xrotation Yrotation
            JOINT lHand
            {
              OFFSET 22.5879 0.773209 7.07136
              CHANNELS 3 Zrotation Xrotation Yrotation
              JOINT lThumb1
              {
                OFFSET 1.2192 -0.487915 3.41376
                CHANNELS 3 Zrotation Xrotation Yrotation
                JOINT lThumb2
                {
                  OFFSET 3.37035 -0.52449 3.41376
                  CHANNELS 3 Zrotation Xrotation Yrotation
                  End Site
                  {
                    OFFSET 1.78271 -1.18214 1.43049
                  }
                }
              }
              JOINT lIndex1
              {
                OFFSET 7.75947 0.938293 5.60832
                CHANNELS 3 Zrotation Xrotation Yrotation
                JOINT lIndex2
                {
                  OFFSET 2.54057 -0.884171 1.56538
                  CHANNELS 3 Zrotation Xrotation Yrotation
                  End Site
                  {
                    OFFSET 1.62519 -0.234802 1.16502
                  }
                }
              }
              JOINT lMid1
              {
                OFFSET 8.24714 1.18213 3.41376
                CHANNELS 3 Zrotation Xrotation Yrotation
                JOINT lMid2
                {
                  OFFSET 3.10165 -0.590103 1.0647
                  CHANNELS 3 Zrotation Xrotation Yrotation
                  End Site
                  {
                    OFFSET 2.48547 -0.328903 0.83742
                  }
                }
              }
              JOINT lRing1
              {
                OFFSET 8.82822 0.546677 1.51678
                CHANNELS 3 Zrotation Xrotation Yrotation
                JOINT lRing2
                {
                  OFFSET 2.60934 -0.819778 -0.0198488
                  CHANNELS 3 Zrotation Xrotation Yrotation
                  End Site
                  {
                    OFFSET 2.33842 -0.294052 0.168128
                  }
                }
              }
              JOINT lPinky1
              {
                OFFSET 8.27202 -0.0477905 -0.4584
                CHANNELS 3 Zrotation Xrotation Yrotation
                JOINT lPinky2
                {
                  OFFSET 1.82734 -0.647385 -0.700984
                  CHANNELS 3 Zrotation Xrotation Yrotation
                  End Site
                  {
                    OFFSET 1.69225 -0.51767 -0.607171
                  }
                }
              }
            }
          }
        }
      }
    }
  }
  JOINT rButtock
  {
    OFFSET -8.77824 4.35084 1.2192
    CHANNELS 3 Zrotation Xrotation Yrotation
    JOINT rThigh
    {
      OFFSET 0 -1.70687 -2.19456
      CHANNELS 3 Zrotation Xrotation Yrotation
      JOINT rShin
      {
        OFFSET 0 -36.8199 0.73152
        CHANNELS 3 Zrotation Xrotation Yrotation
        JOINT rFoot
        {
          OFFSET 0.73152 -45.1104 -5.12064
          CHANNELS 3 Zrotation Xrotation Yrotation
          End Site
          {
            OFFSET -1.1221 -3.69964 12.103
          }
        }
      }
    }
  }
  JOINT lButtock
  {
    OFFSET 8.77824 4.35084 1.2192
    CHANNELS 3 Zrotation Xrotation Yrotation
    JOINT lThigh
    {
      OFFSET 0 -1.70687 -2.19456
      CHANNELS 3 Zrotation Xrotation Yrotation
      JOINT lShin
      {
        OFFSET 0 -36.8199 0.73152
        CHANNELS 3 Zrotation Xrotation Yrotation
        JOINT lFoot
        {
          OFFSET -0.73152 -45.1104 -5.12064
          CHANNELS 3 Zrotation Xrotation Yrotation
          End Site
          {
            OFFSET 1.1221 -3.69964 12.103
          }
        }
      }
    }
  }
}
MOTION
Frames:	4
Frame Time:	0.00833333
-43.573000 55.773800 -99.963800 -172.416150 26.205841 -178.882637 2.045906 11.870352 165.263203 1.649799 -2.252257 -153.093281 -15.697783 20.755953 -58.758234 39.590408 -11.456099 62.133069 -0.645421 -0.132212 5.896057 3.410818 0.353969 -6.036160 1.452038 13.216213 -0.037739 54.319065 -10.872575 15.087971 -11.339403 9.214940 114.449352 -9.008173 17.998529 0.041317 -180.575396 -7.751700 81.261353 -160.463985 2.734828 82.207631 -135.975159 -7.637496 108.468033 3.578739 21.119352 -8.092608 -29.984049 39.548974 43.800598 -157.321058 -40.176949 155.878333 -106.432589 -71.047209 -131.901020 -159.161195 5.986036 -172.174873 -141.024476 55.374156 -150.145219 -171.955738 76.483788 -124.637693 -1.193446 -26.331552 3.072402 -71.422601 62.952387 4.247578 21.314735 -61.403471 -76.528107 1.895939 -20.600718 5.261466 -18.388064 -22.847380 2.517400 100.898416 28.481384 -94.291927 25.645529 24.864340 -10.478771 -57.176600 -48.088283 -9.873885 1.057801 -3.271665 12.154400 5.745489 43.266846 -29.734077 153.538537 -7.925149 170.568221 -10.640966 47.277275 12.267836 3.887354 -9.487828 -1.447740 151.795821 4.291616 129.802082 171.589922 77.858398 5.267852 152.022619 32.134204 18.145322 -153.187054 87.765161 51.046728 37.339007 33.466202 79.548141 -5.266758 -1.473984 -6.006192 58.537036 -66.454462 -103.023377 -79.294542 -56.444926 9.169194 134.672778 65.219518 -54.519688
-43.398200 55.334300 -101.281200 -174.190460 21.551642 -179.808205 -2.454638 12.912094 163.253764 -4.018028 -0.114634 -154.649943 8.222414 28.426535 112.605920 -35.043412 19.382875 -100.992015 -4.084331 4.951009 1.674095 1.681484 -2.117565 -2.592159 4.126457 -15.550216 0.575713 -126.138113 5.743445 -178.393197 6.036856 34.920731 -142.073469 160.908654 -29.584660 138.772021 -181.817438 -2.407172 76.558003 19.530520 -62.640597 25.305279 -68.163549 33.798609 62.308090 21.249565 -27.620249 -7.041226 27.976464 -33.395969 14.786143 -13.324576 33.765867 5.675632 -143.026594 9.477937 174.424139 -113.061429 -73.639592 -116.051232 8.239104 -6.474599 1.771037 10.446727 56.820329 -5.364672 161.527500 -23.342922 -161.945160 35.234560 -0.154013 17.712066 152.079688 39.647876 92.096995 0.109755 -28.015477 -3.338955 -7.197984 -5.752107 5.500168 14.275416 21.033716 -10.054432 86.577164 49.712370 -70.307728 -3.648029 -3.182722 9.642978 -5.130332 -60.611867 15.840080 152.275925 -63.135902 -147.403859 28.757958 72.641337 -33.842377 80.019181 65.422402 -95.968292 -12.406377 19.276273 -9.633927 67.949935 -38.083879 63.134926 -62.323350 28.863720 -47.375926 68.489686 -16.900154 -36.911295 -99.976395 27.494813 -150.315314 -50.153634 -1.297504 -134.377214 -132.766352 62.954310 -32.334211 -179.067595 5.217713 -5.162409 -99.624234 82.719889 -100.802444 153.883145 13.831642 141.415323
-43.193900 54.895400 -102.464300 -175.987595 23.834243 182.909099 1.029152 14.612046 172.312423 1.530929 -1.656464 -151.323532 14.291719 29.037885 91.642173 -36.371186 5.642541 -79.159251 0.240283 -3.295089 9.990523 0.875529 -3.601258 -13.462067 -4.977200 21.155272 0.928545 -141.158831 -42.032393 154.556373 20.316257 -39.815002 -123.521009 167.591121 -23.983791 140.796535 -7.778413 -0.854254 8.610046 -92.419459 12.868414 97.385391 17.571791 -19.107780 1.850922 35.297816 -36.278484 5.470909 18.377805 -25.337802 10.109057 -179.426206 -51.692121 159.631497 -142.654560 6.764794 179.450506 -129.032038 -72.252878 -135.956162 -42.688158 -47.339930 -58.892508 -10.378596 -18.385898 5.664067 160.193871 -26.527284 -165.497842 50.316683 -34.154235 19.669144 -2.244313 9.889006 135.380797 173.659182 5.294213 -149.938381 173.327456 -9.809146 -93.156718 136.379172 15.628218 -73.606186 147.728818 -9.497901 -123.946391 -14.530045 -16.540513 14.011949 159.624622 -25.649203 -147.794471 9.846411 16.690573 14.654323 13.781957 21.763722 3.208347 116.283799 60.767729 -134.808044 139.426634 10.054447 155.568624 6.293226 -59.920346 21.022608 67.973518 38.135783 45.299685 -128.204900 14.396254 -62.293865 -113.023092 56.405208 -45.032062 -142.750491 36.256618 -122.816048 170.172769 74.342506 5.102002 -155.088020 -0.996534 105.638319 85.398347 -25.348089 172.446206 38.319657 -39.725547 117.096142
-42.965700 54.465400 -103.480300 -178.937233 24.689249 176.326664 2.409562 14.168277 -0.015523 -4.951781 -9.313445 9.324749 -6.113548 22.215786 -33.423892 30.379887 -23.931569 45.617748 7.153914 0.966801 7.131900 -0.752759 -2.519980 -19.106353 -150.654975 -71.452278 -179.083525 120.588511 64.136809 -116.462852 172.557036 -21.448480 38.038806 158.315299 -25.188294 146.098777 179.468995 -0.893443 71.624220 -37.973687 -35.387092 -1.680797 37.090209 -32.110230 4.433051 174.473108 -30.386803 104.604239 -9.270259 17.986838 25.515469 -116.084065 72.539556 110.185234 -142.981486 -0.078596 177.032169 -163.900491 -22.216608 -173.129659 -128.616291 24.119463 -147.404250 -94.732725 -48.359336 -113.910749 157.892516 -10.206616 -161.277550 32.224125 34.890194 10.432433 89.556814 50.672490 155.894252 -11.147156 -48.762207 -1.576162 84.086938 42.280321 -51.031181 -33.192100 -34.179112 -21.923362 155.486439 -32.303731 -130.447267 -0.837194 26.013351 -1.038947 5.375756 25.069537 -0.908320 175.512923 -33.770103 -127.245051 54.237195 -60.071768 53.157824 118.046965 -58.205314 157.008641 135.512606 20.373040 155.949066 115.315371 65.888764 180.123141 3.034305 -4.284396 0.085846 -44.354782 -36.827675 -61.802757 -118.007230 49.908201 -61.481665 -138.476088 16.390858 -134.228385 -3.166135 5.025494 -3.891496 57.815491 -63.636829 -92.083549 -84.999623 -32.594505 181.140522 -32.188939 34.100263 -78.009245
